<?xml version="1.0" encoding="UTF-8" standalone="no"?>
<!DOCTYPE svg PUBLIC "-//W3C//DTD SVG 1.1//EN" "http://www.w3.org/Graphics/SVG/1.1/DTD/svg11.dtd">
<svg xmlns="http://www.w3.org/2000/svg" version="1.1" xmlns:xlink="http://www.w3.org/1999/xlink" width="650px" height="3030.0px">
<style>text {font-family:PingFangSC-Regular, Microsoft YaHei, 'Hiragino Sans GB', Helvetica; ;font-size:14px;fill:#333;}</style>
	<text x="0" y="45">巷寺志倾无爸泛蹲恶吨铁忆纤让益姿厉沿锈但付粥逐抓由祥棚乱数锡倒生知哗胀托吴龄顷朱先脊</text>
	<text x="0" y="83">沉味柔即楚适定舅睁厌倦嘱独撤娇搏婚淹蜻感期暑皆趣票衡捎答完嚷且价责笔朋近畅杂温盲准宽</text>
	<text x="0" y="132">营贸联艳漂歼妻毯干剥盐贤牢洋巾焰敬天高污焦寿床党柴街吵周穗左钉缓纯珍帝厅翅徒爷狭赞农</text>
	<text x="0" y="166">毅恒西采劫武摔宿善宣号貌闭游脆卜域乐胜拾拼旱三番桥姜瓶嫩状可释阴寻扁辨刊山滴浸古试使</text>
	<text x="0" y="198">按族颂委更太搂哄呈画阶面仁铸微十叫绣植团敲仓阻薯狮荒筋萝擦恭剪迈厘串教结运痒治鸟神援</text>
	<text x="0" y="239">瓦棉井索流概耗谋本余岁电赢提雪笨耻轧裤侨饺慧欧洲问躬较竟积另询聚铃注疤延晶紫她忠捧锄</text>
	<text x="0" y="281">树奖觉叛洁晋员验负咬塑丈偷块易秩昨承瞎塌涝消民朵疾呢屑品桨婆喘畜公润害皱淘怒酬女榴糟</text>
	<text x="0" y="319">我梦菜携洪繁蛛碎御肯少喇扭广曲儿年贡亡屿毒底置驳这麦子禾字穷拌尿低丛约课略环孟潮枯绸</text>
	<text x="0" y="361">疼疑步库要剩包照想诱戏牺矿构渗言外贪枕束胞乖趴泊汁遥政诉保又急尝大交季缺箱岗逗颗牲队</text>
	<text x="0" y="398">惠性习序成造膨谈身烛顺算鸽痕燕吓惹端某搅嗓款室粘舰抵良晴优板廊雁虑扑溜操否真煮召敌命</text>
	<text x="0" y="447">恼合落升荷漠常夜之塔垄雾拒嗽墙帮派昏冒至筒鸣尸锋裙秤私薪池罗纸度引从牙勤宅迹锹群跟春</text>
	<text x="0" y="482">探随就找灾赏俩塘驱咏阵炊埋带直惧茂玩哥瘦顽降腹柜怀呼廉北魄挺才护迫罢编铜悬桂帖浆伍挤</text>
	<text x="0" y="524">多例榆战丽鞠愈然酱怖何角台报锯囊萍茄狐理吧伞欢蜜渐匠骑瓣赔攀或茅狗杠料虎触晚冈昂废愉</text>
	<text x="0" y="571">厕辩章染横疫灰筝拖听陕罪经绿单滩暂杯睬截湖待著销饱绞午楼辰解布俘榜局那艇俭霜芽脏朴晓</text>
	<text x="0" y="611">妥错炎围笋参卵掏餐体僚此辟盆筑畏叶鼻的刚霉克窑谷友远们逆郑扶愤副况蠢趟义切届絮违维朝</text>
	<text x="0" y="659">灶暗梢充堡罩燥秘泉壮美隔劣穴箩愁扩明拜段补浩只距袄控挣酿一湾谎烟蝇七丘哲盖圈他甜势追</text>
	<text x="0" y="698">茧吸紧套斑砌铺务健竖填深蓝戚风翁顶姐皂甘果猫窗碍崇谢辞筐趋列秋声眉留聪蝶贝妖泻掀稠踏</text>
	<text x="0" y="748">速僻秆减警凳是猛懂赚饮浴兔犁阿众世跑巴户凯散辅鹰螺依射两硬沫征寇田告掉涉斧忙颈寒婶芝</text>
	<text x="0" y="782">磁爬粗棒掘伴仆异遇苏绑未怨虾冷脂辆念链协屋迎披雷辉末启统刘桌智淡衔飘秃封没司房锣艘班</text>
	<text x="0" y="820">莫必奶语昆原揭丸预宰笛已盗滨点热还兆拦表酸牵阁残平慕赖应者钢守剑及饿浪享金位头彻律茫</text>
	<text x="0" y="865">给盈刮择谅震肝侦绒童辱图文耳稼蹄级蹈着因拨潜今抖渣题你崖剖萄中饲昼样比也娃欺杀狡弟六</text>
	<text x="0" y="910">血赛旁几缘屡舒则测袜献亚疗踢许驴娱译材伶奔源上扫接光咱匆伟其矩壶宴撕里晒柿灭波冠兵览</text>
	<text x="0" y="946">久道斥普旅买禁净斜挡纺夏关唇症侮捏逃浓邻弓蚀烂乘肆须粱传鹊缎检油格睛钳册系卧壤尘固贴</text>
	<text x="0" y="978">招锦秒川型捕跃密蒜士恳缝肉锅码讯境抹宪店总像权决革愧伯立永鲜兰累出八拥驼得首泪惯医旺</text>
	<text x="0" y="1025">渠栗瑞裕忍叉了堪辽萌驶乒凭旨腥齿若努屯秀富钟辈冰搭忘盘城叮栏航箭溉绘目碗案泼核输晃象</text>
	<text x="0" y="1075">市隶搬阔佳眼层次停帘达莲欲臭吩零弱幅死省来贫隆丙伐机草碰见袋堤九遣葛扔汤摆施国扎滤恋</text>
	<text x="0" y="1117">始灿希杜笑代五喊泡喜亩化财摇碧避脱鸦衫膊锤主窄过悟呆王惨爪被俗爱哑腊倡彼内泥仇柳氧窝</text>
	<text x="0" y="1155">斤现唯吗映袖妹替梨悉划涌香评区令饰诞蔽基二弃泰鼠察管心兼将休夕孙搞梳膏什粉丹谊栽括终</text>
	<text x="0" y="1190">新哈锁纲脚建跪毕疆假瞒陡康能所榨蛋通冬芳浙走如乔搁驾青芒宫躁毫匀旗碌既么奥影诸拿门胃</text>
	<text x="0" y="1230">巨悄购仙奉记式岛橡容孕殿属做惜方规米晕翻舱咽渡炭甚备刺效拣占卫融绩傻骡用讲偏锐学简帐</text>
	<text x="0" y="1267">卷岩糖拘德网节举兴挠称贿胸斗俯捷济馅程妄玻非驻坡村额肾葡同腰腿袍妙崭宏棕踩丢迟梅止夫</text>
	<text x="0" y="1304">粪取借唉拐企躲烤范汽桃饶申蛙人任挖考圾摸液继佛蜡演片谦疯押己酒博趁打句蓄席鱼续响雹尾</text>
	<text x="0" y="1345">捡荐伙耽役录审裹捉陵别星坑烈州拳杆添撑校拉糕湿臣入壁钩烫资君督菠妈苗转具肩第篮腔槽洽</text>
	<text x="0" y="1395">折复森冤霞巩展翠铅东鞭受乏加到弹羞淋祖咐小执乃歉产滔煌闯伪姥扛拴膀县药肢江行纠亮订屠</text>
	<text x="0" y="1445">氏傍界沈腐勒振静挥赤词根阳幕误予似慈摄亏惑梯早耐临覆尽含话盯垒乓芹姑醒院右清寸怜嫁砖</text>
	<text x="0" y="1482">荡叼促郊玉请各渴洞寄遵扒场专饼欠致煎傲训霸咳尤师苍陪说连投陆唤津刷障够导炮誉雨贯技露</text>
	<text x="0" y="1516">哪刑筛冻谁舌开裂港云雄诵等犬劳躺羡讽帜昌循尼仅醉以修并四猾漏前键南炼签稿勾眯背稻剂松</text>
	<text x="0" y="1563">陷书球策径乡岸稍吞爆吃挎宇靠裳扣狱驰恢腾怠搜胶砍稀肺雀悠家阀墨膛泳滚坦足值住歌凑邀夹</text>
	<text x="0" y="1596">棵反嫂惊沟勉旧疲宁瞧逼煤抄励匙曾炕描耀细粮旦勇祝工堆领誓掌弊赌浅幸质情骗税株很稳强跨</text>
	<text x="0" y="1633">活摊丧岂丁钻竿相痛写柄愚匪沃商部储赶峡忧馆刀黎垮色呀共英旷求珠攻馋轨撒府遭闲喷物柏售</text>
	<text x="0" y="1669">丑竭樱颜辣蔑弯怎盾槐扮禽查绝看增快监扬拍谜归嫌葱牧水悔塞火蚂龙纽胆洗汉线竞尚空脾织扰</text>
	<text x="0" y="1718">股极脑供聋捐播旋坚正郎把银挂鸭尺佣访雕悼棋劝暴歇便间纷而绪证仗袭璃佩陶改坝镰纱述秧咸</text>
	<text x="0" y="1751">峰胖鸡瓜病刻调载翼鞋涨百车木熟隐顾再条迁率分哨厂堂男猪动诗服存夺睡戴半械飞笼会林幼标</text>
	<text x="0" y="1789">估贩侵蜂魂讨军赠爹阅器送蚕凉仔项职暖衣斩窃逢眨判弄豪捞居雅吐庄退圆路础份凤好削犯杨菌</text>
	<text x="0" y="1831">蝴宙蛾膜下礼奏偶租素典肌债鄙拆坊模僵和葵惰蹦当筹皇允宜缴揪际插手后薄猜侧险万兄滥吊饥</text>
	<text x="0" y="1879">央科虽盏音俱骄都跌糠混个杏慌华骤叔帽熄抽皮蒸确蚁威摘桶显鬼穿贞衰兽谣诊介唱荣父却悲该</text>
	<text x="0" y="1925">事韵培牛痰官贼离马全肃困爽劈垂叹麻闸卡认货历疮遗社斯抢肠椅沙浮炒徐甩亿患挽防窜仿汪践</text>
	<text x="0" y="1963">挪符坐唐朗苹孩轻邮铲垦茶苦变收伏换哀不意选超椒日白晌夸架救轰币跳哭亦获拢针鹿摩丰于妇</text>
	<text x="0" y="2012">掠鼓汇啊涛李肥持站脉宝损肚删殃厨颠沾巧蒙抗功示镇免桑狼朽河挨羊蓬踪羽胳互毁喝饭它慨类</text>
	<text x="0" y="2056">孝疏绢卖批忽息自肿尊眠回时排逮锻帅剧满倍仍镜般双信芬授亲详向边甲识断晨龟量土思篇扯轮</text>
	<text x="0" y="2106">亭殖尖浊耍鉴办喉力放泽黑蜘灵滋名处限巡艺猎洒糊剃纵蕉娘竹臂绕论桐殊为庸绍枝地挑绵炸屈</text>
	<text x="0" y="2141">缠形倚观危破梁仪姻邪术争座迷闻花起遍丝难设精魔傅费短藏虚坟抛怕议摧抚登创与喂啦沸懒推</text>
	<text x="0" y="2187">栋敞忌制茎顿嘴计犹研脖狠叠缸作视奸利最千态矮盟据炉倘灌菊惭凶抱史醋黄页枪败粒胡贵担慎</text>
	<text x="0" y="2227">移鹅些岭冲葬凝口呜撞揉杰种戒坏盒厚突附鲁析烧骆食牌纳枣除盛劲遮卸烦去框址颤恨偿澡法返</text>
	<text x="0" y="2270">蚊庆割贱指支发件仰陈岔坛奴滑赵船豆每乎候浑严在辜乙纪骨愿汗弦漆故击勿溪激贺奇老漫初怪</text>
	<text x="0" y="2311">拔握垫景钥客圣压蛇练谱孔肤叨脸越蛮壳辛垃伸叙碑究橘纹石惩敢逝虹失渔诚慢凡京望惕重隙读</text>
	<text x="0" y="2343">默馒侄途乌掩宵籍软进歪贷奋您绳特吼整养福抬络宗扇宋厦帆均装递闹业盼嘉烘齐胁组往熔差轿</text>
	<text x="0" y="2378">元冶矛气有育吉虫恩幻版透野董悦闷俊辫猴券芦柱裁琴舞谨实罚张耕长侍月乞集海狸彩敏浇舟毛</text>
	<text x="0" y="2419">对灯嚼赴姨熊匹捆庙燃钱磨吹虏恐钞档酷毙闪欣蔬寨恰祸衬艰撇骂堵棍舍孤伤安园宾罐啄旬泄庭</text>
	<text x="0" y="2451">红蜓妨姓狂暮涂迅慰母催墓配膝勺助钓刃缩乳需</text>
</svg>